<?xml version="1.0" standalone="no"?>
<!DOCTYPE svg PUBLIC "-//W3C//DTD SVG 20010904//EN" "http://www.w3.org/TR/2001/REC-SVG-20010904/DTD/svg10.dtd">
<svg version="1.0" xmlns="http://www.w3.org/2000/svg" width="500.000000pt" height="500.000000pt"
    viewBox="0 0 500.000000 500.000000" preserveAspectRatio="xMidYMid meet">

    <g transform="translate(0.000000,500.000000) scale(0.100000,-0.100000)" fill="#ff3737" stroke="none">
        <path d="M975 4553 c-226 -30 -422 -194 -502 -420 l-28 -78 -3 -1519 c-3
-1689 -6 -1611 64 -1752 64 -131 188 -243 333 -302 31 -13 97 -27 150 -33 63
-6 615 -9 1581 -7 l1485 3 85 31 c154 55 271 154 343 291 77 147 71 14 75
1673 2 992 0 1515 -7 1575 -17 143 -66 248 -164 352 -91 96 -216 162 -347 183
-62 9 -2993 13 -3065 3z m2200 -1073 c432 -20 533 -41 629 -130 114 -105 149
-268 162 -740 10 -393 -19 -773 -69 -892 -40 -96 -121 -175 -216 -212 -97 -38
-300 -48 -1040 -53 -685 -5 -940 1 -1191 28 -115 12 -196 46 -258 109 -112
113 -138 230 -151 670 -14 484 13 845 73 974 55 120 162 195 306 215 78 10
341 30 470 34 213 8 1094 6 1285 -3z" />
        <path d="M2200 2465 c0 -295 4 -535 8 -533 5 2 194 122 420 268 345 222 408
266 394 276 -22 14 -793 508 -809 518 -10 6 -13 -103 -13 -529z" />
    </g>
</svg>